<?xml version="1.0" encoding="UTF-8" standalone="no"?>
<!-- Generator: Adobe Illustrator 16.0.0, SVG Export Plug-In . SVG Version: 6.00 Build 0)  -->

<svg
   version="1.1"
   id="Layer_1"
   x="0px"
   y="0px"
   width="481.43903"
   height="299.06699"
   viewBox="0 0 481.439 299.06698"
   enable-background="new 0 0 595.28 841.89"
   xml:space="preserve"
   sodipodi:docname="logo.svg"
   xmlns:inkscape="http://www.inkscape.org/namespaces/inkscape"
   xmlns:sodipodi="http://sodipodi.sourceforge.net/DTD/sodipodi-0.dtd"
   xmlns="http://www.w3.org/2000/svg"
   xmlns:svg="http://www.w3.org/2000/svg"><defs
   id="defs53" /><sodipodi:namedview
   id="namedview51"
   pagecolor="#ffffff"
   bordercolor="#000000"
   borderopacity="0.25"
   inkscape:showpageshadow="2"
   inkscape:pageopacity="0.0"
   inkscape:pagecheckerboard="0"
   inkscape:deskcolor="#d1d1d1"
   showgrid="false"
   inkscape:zoom="1.1212866"
   inkscape:cx="205.56742"
   inkscape:cy="536.88325"
   inkscape:window-width="1701"
   inkscape:window-height="984"
   inkscape:window-x="0"
   inkscape:window-y="25"
   inkscape:window-maximized="0"
   inkscape:current-layer="Layer_1" />
<g
   id="g48"
   transform="translate(-57.669997,-270.93302)">
	<g
   id="g16">
		<path
   fill="#89c5e1"
   d="m 299.193,270.933 c -16.737,0 -32.833,2.754 -47.859,7.824 L 447.71,403.032 C 439.074,328.665 375.881,270.933 299.193,270.933 Z"
   id="path2" />
		<path
   fill="#89c5e1"
   d="m 299.193,570 c 76.866,0 140.172,-58 148.576,-132.622 L 250.838,562.004 c 15.169,5.18 31.433,7.996 48.355,7.996 z"
   id="path4" />
		<g
   id="g10">
			<path
   fill="#81a9c9"
   d="m 247.26,280.207 c -20.11,7.447 -38.175,19.097 -53.142,33.882 l 167.038,105.78 -167.72,106.313 c 14.914,14.921 32.972,26.697 53.085,34.27 L 392.836,419.621 Z"
   id="path6" />
			<path
   fill="none"
   d="M 447.71,403.032 251.334,278.757 c -1.367,0.463 -2.724,0.947 -4.074,1.45 l 145.577,139.414 -146.315,140.83 c 1.43,0.536 2.866,1.06 4.316,1.553 L 447.77,437.378 c 0.625,-5.551 0.956,-11.194 0.956,-16.91 0,-5.905 -0.351,-11.717 -1.016,-17.436 z"
   id="path8" />
		</g>
		<path
   fill="none"
   d="m 194.119,314.089 c -4.157,4.101 -8.069,8.446 -11.723,13.011 l 97.816,92.77 -98.121,93.587 c 3.542,4.451 7.328,8.704 11.346,12.726 L 361.157,419.87 Z"
   id="path12" />
		<path
   fill="#8994c1"
   d="m 182.396,327.1 c -20.481,25.591 -32.734,58.043 -32.734,93.368 0,35.146 12.134,67.46 32.429,92.988 l 98.121,-93.587 z"
   id="path14" />
	</g>
	<g
   id="g46">
		<g
   id="g20">
			<path
   d="m 387.221,452.367 h -36.226 c -6.382,0 -11.578,-5.192 -11.578,-11.577 v -26.587 c 0,-6.384 5.196,-11.578 11.578,-11.578 h 36.226 v 9.552 h -36.226 c -1.112,0 -2.022,0.911 -2.022,2.026 v 26.587 c 0,1.115 0.91,2.022 2.022,2.022 h 36.226 z"
   id="path18" />
		</g>
		<path
   d="m 134.553,398.822 h 16.863 v -9.556 h -16.863 c -6.385,0 -11.578,5.19 -11.578,11.578 v 51.523 h 9.552 v -36.741 h 18.889 v -9.552 h -18.889 v -5.229 c 0,-1.116 0.91,-2.023 2.026,-2.023 z"
   id="path22" />
		<path
   d="m 156.728,400.844 v 51.523 h 9.555 v -36.741 h 18.886 v -9.552 h -18.886 v -5.229 c 0,-1.115 0.907,-2.022 2.026,-2.022 h 16.86 v -9.556 h -16.86 c -6.388,0 -11.581,5.19 -11.581,11.577 z"
   id="path24" />
		<path
   d="m 214.904,440.79 v -51.523 h -9.555 v 51.523 c 0,6.385 5.193,11.577 11.581,11.577 h 7.646 v -9.555 h -7.646 c -1.119,10e-4 -2.026,-0.907 -2.026,-2.022 z"
   id="path26" />
		<path
   d="m 447.488,414.206 v 38.161 h 9.552 v -38.161 c 0,-1.119 0.913,-2.029 2.025,-2.029 h 25.048 v -9.552 h -25.048 c -6.38,0 -11.577,5.193 -11.577,11.581 z"
   id="path28" />
		<path
   d="m 430.598,402.625 h -1.439 -23.605 -1.442 c -6.382,0 -11.578,5.193 -11.578,11.581 v 5.203 16.178 5.203 c 0,6.385 5.196,11.577 11.578,11.577 h 35.471 v -9.555 H 404.11 c -1.112,0 -2.022,-0.907 -2.022,-2.022 v -5.203 -2.578 h 40.088 v -18.803 c 0,-6.388 -5.194,-11.581 -11.578,-11.581 z m 2.022,20.825 h -30.532 v -4.041 -5.203 c 0,-1.119 0.91,-2.029 2.022,-2.029 h 1.442 23.605 1.439 c 1.116,0 2.022,0.911 2.022,2.029 v 9.244 z"
   id="path30" />
		<path
   d="m 527.531,422.917 h -26.527 c -1.115,0 -2.026,-0.906 -2.026,-2.025 v -6.686 c 0,-1.119 0.911,-2.029 2.026,-2.029 h 1.439 23.605 1.439 c 1.115,0 2.022,0.911 2.022,2.029 h 9.559 c 0,-6.388 -5.196,-11.581 -11.581,-11.581 h -1.439 -23.605 -1.439 c -6.385,0 -11.581,5.193 -11.581,11.581 v 6.686 c 0,6.388 5.196,11.581 11.581,11.581 h 26.527 c 1.119,0 2.025,0.906 2.025,1.989 l -0.046,6.328 c 0,1.115 -0.907,2.022 -2.022,2.022 h -1.439 -23.605 -1.439 c -1.115,0 -2.026,-0.907 -2.026,-2.022 h -9.555 c 0,6.385 5.196,11.577 11.581,11.577 h 1.439 23.605 1.439 c 6.385,0 11.581,-5.192 11.581,-11.544 l 0.04,-6.328 c 0,-6.385 -5.193,-11.578 -11.578,-11.578 z"
   id="path32" />
		<path
   d="m 267.953,402.625 h -38.065 v 9.552 h 38.065 c 1.112,0 2.022,0.911 2.022,2.016 l -0.017,8.297 h -40.071 v 18.3 c 0,6.385 5.196,11.577 11.581,11.577 h 1.437 23.609 12.948 l 0.069,-38.161 c -0.001,-6.388 -5.197,-11.581 -11.578,-11.581 z m -1.44,40.188 h -23.609 -1.437 c -1.115,0 -2.025,-0.907 -2.025,-2.022 v -8.744 h 30.5 l -0.02,10.767 h -3.409 z"
   id="path34" />
		<path
   d="m 322.527,402.625 h -37.685 v 49.742 h 9.555 v -40.19 h 28.129 c 1.115,0 2.025,0.911 2.025,2.026 v 38.165 h 9.553 v -38.165 c 0.001,-6.385 -5.192,-11.578 -11.577,-11.578 z"
   id="path36" />
		<g
   id="g42">
			<rect
   x="190.481"
   y="406.07401"
   width="9.5550003"
   height="46.284"
   id="rect38" />
			<rect
   x="190.481"
   y="389.267"
   width="9.5550003"
   height="9.5559998"
   id="rect40" />
		</g>
		<path
   d="M 106.085,389.267 H 69.251 c -6.388,0 -11.581,5.19 -11.581,11.578 v 51.523 h 9.559 v -19.606 h 40.882 v 19.606 h 9.552 v -51.523 c 0,-6.388 -5.193,-11.578 -11.578,-11.578 z m -38.856,33.942 v -22.365 c 0,-1.115 0.904,-2.022 2.022,-2.022 h 36.834 c 1.115,0 2.025,0.907 2.025,2.022 v 22.365 z"
   id="path44" />
	</g>
</g>
</svg>
